<svg xmlns="http://www.w3.org/2000/svg" width="80" height="80" viewBox="0 0 80 80" fill="none">
   <path
      d="M36.2723 2.71767V28.753C36.2723 28.953 36.1076 29.1177 35.9076 29.1177C35.7076 29.1177 35.5547 28.953 35.5547 28.753V2.71767C35.5547 2.51767 35.7076 2.35297 35.9076 2.35297C36.1076 2.35297 36.2723 2.51767 36.2723 2.71767Z"
      fill="#3360A9" />
   <path
      d="M77.6476 77.6471H2.35352L17.45 48.4153L21.1182 47.1565L33.3735 28.7482V28.7435L35.9159 24.9271L39.0029 28.2788L42.7241 32.3165L43.4735 33.1353L51.8029 42.1729L54.5147 41.7718L77.6476 77.6471Z"
      fill="url(#paint0_linear_144_4255)" />
   <path
      d="M59.819 77.6471L58.0131 58.4447L53.7849 60.1177L35.9143 24.9271L35.1543 46.9494L41.2766 57.0788L36.2119 77.6471H59.819Z"
      fill="url(#paint1_linear_144_4255)" />
   <path
      d="M26.565 77.6471L27.6886 62.7165L23.8568 66.6141V56.44L35.9133 24.9271L21.1144 47.1577L15.4662 66.9447L6.2168 77.6471H26.565Z"
      fill="url(#paint2_linear_144_4255)" />
   <path
      d="M61.0835 54.2447C60.1752 51.1788 57.5847 48.5788 53.9858 47.1035C50.9411 45.8682 47.7011 45.5447 44.0917 45.2753L43.7435 45.2482C40.6188 45.0223 37.3905 44.7835 34.4411 43.7423C32.8399 43.1718 31.0105 41.9306 31.1435 40.3129C31.2694 38.8071 33.0023 37.8447 34.4941 37.1729L43.4729 33.1353L42.7235 32.3165L34.0599 36.2059C32.2999 36.9988 30.2599 38.1718 30.0917 40.2223C29.907 42.4423 32.0364 44.0071 34.087 44.7365C37.1741 45.8306 40.4717 46.0729 43.6694 46.3059L44.0129 46.3329C47.5317 46.5918 50.6882 46.9035 53.5835 48.0871C56.8399 49.4141 59.2658 51.8282 60.0682 54.5459C60.9505 57.5212 59.9576 61.1365 57.527 63.7412C55.4705 65.9565 52.3894 67.5788 48.6211 68.4294C45.6776 69.0906 42.5858 69.2647 39.5941 69.4341L38.2411 69.5129C30.8238 69.9555 23.4397 70.8414 16.1282 72.1659C13.9717 72.5576 11.8682 72.98 9.90701 73.8835C8.76583 74.4059 7.34936 75.2576 6.21289 76.5624H7.33054V76.9188C8.13407 76.0988 9.15407 75.3871 10.3458 74.8412C12.1952 73.9941 14.2305 73.5824 16.3176 73.2082C23.5877 71.8889 30.9302 71.0061 38.3058 70.5647L39.6529 70.4906C42.6882 70.3165 45.827 70.1424 48.8552 69.46C52.8341 68.5624 56.1011 66.8341 58.3047 64.4659C60.9788 61.5859 62.0717 57.5741 61.0835 54.2447Z"
      fill="#E6EBF4" />
   <path
      d="M31.8844 40.4859C33.2164 40.4859 34.2962 39.4061 34.2962 38.0741C34.2962 36.7421 33.2164 35.6624 31.8844 35.6624C30.5524 35.6624 29.4727 36.7421 29.4727 38.0741C29.4727 39.4061 30.5524 40.4859 31.8844 40.4859Z"
      fill="#3A89FF" />
   <path
      d="M31.8843 39.56C32.7049 39.56 33.3702 38.8948 33.3702 38.0741C33.3702 37.2535 32.7049 36.5883 31.8843 36.5883C31.0637 36.5883 30.3984 37.2535 30.3984 38.0741C30.3984 38.8948 31.0637 39.56 31.8843 39.56Z"
      fill="white" />
   <path
      d="M59.818 62.0235C61.15 62.0235 62.2298 60.9438 62.2298 59.6118C62.2298 58.2798 61.15 57.2 59.818 57.2C58.486 57.2 57.4062 58.2798 57.4062 59.6118C57.4062 60.9438 58.486 62.0235 59.818 62.0235Z"
      fill="#3A89FF" />
   <path
      d="M59.8179 61.0976C60.6385 61.0976 61.3038 60.4324 61.3038 59.6117C61.3038 58.7911 60.6385 58.1259 59.8179 58.1259C58.9973 58.1259 58.332 58.7911 58.332 59.6117C58.332 60.4324 58.9973 61.0976 59.8179 61.0976Z"
      fill="white" />
   <path
      d="M42.3336 60.5106C43.6656 60.5106 44.7454 59.4308 44.7454 58.0988C44.7454 56.7669 43.6656 55.6871 42.3336 55.6871C41.0017 55.6871 39.9219 56.7669 39.9219 58.0988C39.9219 59.4308 41.0017 60.5106 42.3336 60.5106Z"
      fill="#3A89FF" />
   <path
      d="M42.3335 59.5847C43.1542 59.5847 43.8194 58.9194 43.8194 58.0988C43.8194 57.2782 43.1542 56.6129 42.3335 56.6129C41.5129 56.6129 40.8477 57.2782 40.8477 58.0988C40.8477 58.9194 41.5129 59.5847 42.3335 59.5847Z"
      fill="white" />
   <path
      d="M7.59731 77.6471C8.92929 77.6471 10.0091 76.5673 10.0091 75.2353C10.0091 73.9033 8.92929 72.8235 7.59731 72.8235C6.26533 72.8235 5.18555 73.9033 5.18555 75.2353C5.18555 76.5673 6.26533 77.6471 7.59731 77.6471Z"
      fill="#3A89FF" />
   <path
      d="M7.59721 76.7212C8.41784 76.7212 9.08309 76.0559 9.08309 75.2353C9.08309 74.4146 8.41784 73.7494 7.59721 73.7494C6.77658 73.7494 6.11133 74.4146 6.11133 75.2353C6.11133 76.0559 6.77658 76.7212 7.59721 76.7212Z"
      fill="white" />
   <path
      d="M39.0025 28.2788L37.5013 28.0506L37.3801 29.7953L35.7778 28.1988L33.9448 30.0753L33.373 28.7482V28.7435L35.9154 24.9271L39.0025 28.2788Z"
      fill="#3A89FF" />
   <path d="M52.4217 15.5906H40.9688V8.56116H52.4217L48.877 12.0753L52.4217 15.5906Z" fill="#CE1126" />
   <path d="M36.2734 4.80353H44.5746V11.8329H36.2734V4.80353Z" fill="#CE1126" />
   <path d="M44.5746 11.8329L40.9688 15.5906V11.8329H44.5746Z" fill="#920C1B" />
   <defs>
      <linearGradient id="paint0_linear_144_4255" x1="39.217" y1="47.0694" x2="38.9959" y2="38.4671"
         gradientUnits="userSpaceOnUse">
         <stop stop-color="#476870" />
         <stop offset="1" stop-color="#76949B" />
      </linearGradient>
      <linearGradient id="paint1_linear_144_4255" x1="29.7908" y1="48.6541" x2="55.4767"
         y2="59.4377" gradientUnits="userSpaceOnUse">
         <stop stop-color="#476870" />
         <stop offset="1" stop-color="#76949B" />
      </linearGradient>
      <linearGradient id="paint2_linear_144_4255" x1="42.7768" y1="44.1906" x2="22.3356"
         y2="56.7635" gradientUnits="userSpaceOnUse">
         <stop stop-color="#476870" />
         <stop offset="1" stop-color="#76949B" />
      </linearGradient>
   </defs>
</svg>